<!-- <svg xmlns="http://www.w3.org/2000/svg" viewBox="0 0 261.76 226.69"  xmlns:v="https://vecta.io/nano"><path d="M161.096.001l-30.225 52.351L100.647.001H-.005l130.877 226.688L261.749.001z" fill="#41b883"/><path d="M161.096.001l-30.225 52.351L100.647.001H52.346l78.526 136.01L209.398.001z" fill="#34495e"/></svg> -->
<?xml version="1.0" encoding="utf-8"?><!-- Uploaded to: SVG Repo, www.svgrepo.com, Generator: SVG Repo Mixer Tools -->
<svg fill="#000000" width="800px" height="800px" viewBox="0 0 24 24" xmlns="http://www.w3.org/2000/svg"><path d="M6,11a1,1,0,0,1,1,1v7a1,1,0,0,1-2,0V12A1,1,0,0,1,6,11Zm5-6V19a1,1,0,0,0,2,0V5a1,1,0,0,0-2,0Zm6,3.5V19a1,1,0,0,0,2,0V8.5a1,1,0,0,0-2,0Z"/></svg>